<?xml version="1.0" ?><svg viewBox="0 0 64 64" xmlns="http://www.w3.org/2000/svg"><title/><g data-name="Layer 24" id="Layer_24"><path d="M62,45H60.58A5,5,0,0,0,61,43a4.91,4.91,0,0,0-1.6-3.65,5,5,0,0,0-6.19-7A5,5,0,0,0,44.1,34H43a1,1,0,0,0-1,1v6H40V22a9,9,0,0,0-9-9H21a5,5,0,0,0-5,5v9H7a4,4,0,0,0-4,4V41H2a1,1,0,0,0-1,1v4a1,1,0,0,0,1,1H5.35a6,6,0,0,0,11.3,0h10.7a6,6,0,0,0,11.3,0H42a4,4,0,0,0,4,4H62a1,1,0,0,0,1-1V46A1,1,0,0,0,62,45ZM49,32a3,3,0,0,1,2.82,2,1,1,0,0,0,1.5.49A3,3,0,0,1,55,34a3,3,0,0,1,3,3,2.92,2.92,0,0,1-.73,1.93,1,1,0,0,0,.26,1.5A3,3,0,0,1,58.21,45H55V43a1,1,0,0,0-.29-.71l-8-8a1.09,1.09,0,0,0-.54-.26A3,3,0,0,1,49,32ZM37.31,19A6.88,6.88,0,0,1,38,22V33H26V19ZM21,15H31a7,7,0,0,1,4.89,2H25a1,1,0,0,0-1,1V34a1,1,0,0,0,1,1H38v6h-.54a6,6,0,0,0-8.92,0H18V18A3,3,0,0,1,21,15ZM5,31a2,2,0,0,1,2-2h9V41h-.54a6,6,0,0,0-8.92,0H5ZM3,45V43H5.35A6,6,0,0,0,5,45Zm8,4a4,4,0,1,1,4-4A4,4,0,0,1,11,49Zm6-4a6,6,0,0,0-.35-2h10.7A6,6,0,0,0,27,45Zm16,4a4,4,0,1,1,4-4A4,4,0,0,1,33,49Zm6-4a6,6,0,0,0-.35-2H47v2Zm22,4H46a2,2,0,0,1-2-2h4a1,1,0,0,0,1-1V42a1,1,0,0,0-1-1H44V36h1.59L53,43.41V46a1,1,0,0,0,1,1h7Z"/><rect height="2" transform="translate(-3.69 47.09) rotate(-45)" width="2.83" x="53.59" y="27"/><rect height="2.83" transform="translate(-4.35 51.51) rotate(-45)" width="2" x="59" y="29.59"/><rect height="2" width="6" x="8" y="31"/><rect height="2" width="6" x="8" y="35"/><rect height="3" width="2" x="20" y="32"/></g></svg>