<svg width="56" height="59" viewBox="0 0 56 59" fill="none" xmlns="http://www.w3.org/2000/svg">
<g clip-path="url(#clip0)">
<path d="M50.6901 0.5H12.1901C10.975 0.501588 9.81003 1.02888 8.95081 1.96622C8.09158 2.90356 7.60823 4.1744 7.60677 5.5V44.5H1.1901C0.946989 44.5 0.713831 44.6053 0.541923 44.7929C0.370015 44.9804 0.273438 45.2348 0.273438 45.5V47.5C0.274893 48.8256 0.758246 50.0964 1.61747 51.0337C2.4767 51.9711 3.64164 52.4984 4.85677 52.5H33.2954V57.5C33.2954 57.6857 33.3428 57.8677 33.4323 58.0257C33.5218 58.1837 33.6499 58.3113 33.8022 58.3944C33.9544 58.4774 34.1249 58.5126 34.2944 58.4959C34.464 58.4792 34.6259 58.4114 34.7621 58.3L37.8788 55.75L40.9954 58.3C41.1539 58.4303 41.347 58.5005 41.5454 58.5C41.6875 58.5014 41.828 58.4672 41.9561 58.4C42.109 58.3164 42.2374 58.1878 42.3269 58.0287C42.4163 57.8697 42.4631 57.6865 42.4621 57.5V52.5H43.3568C44.5719 52.4984 45.7368 51.9711 46.5961 51.0337C47.4553 50.0964 47.9386 48.8256 47.9401 47.5V8.49999H54.3568C54.5999 8.49999 54.833 8.39464 55.005 8.2071C55.1769 8.01956 55.2734 7.76521 55.2734 7.5V5.5C55.272 4.1744 54.7886 2.90356 53.9294 1.96622C53.0702 1.02888 51.9052 0.501588 50.6901 0.5ZM33.2954 50.5H4.85677C4.12743 50.5 3.42795 50.1839 2.91223 49.6213C2.3965 49.0587 2.10677 48.2956 2.10677 47.5V46.5H33.2954V50.5ZM40.6288 55.5L38.4288 53.7C38.2701 53.5701 38.0771 53.5 37.8788 53.5C37.6804 53.5 37.4874 53.5701 37.3288 53.7L35.1288 55.5V44.331C35.3059 44.3463 35.484 44.3426 35.6604 44.32C35.9215 44.6873 36.2561 44.9846 36.6387 45.1891C37.0213 45.3936 37.4417 45.5 37.8678 45.5C38.2938 45.5 38.7142 45.3936 39.0968 45.1891C39.4794 44.9846 39.814 44.6873 40.0751 44.32C40.2576 44.3438 40.4419 44.3475 40.6251 44.331L40.6288 55.5ZM41.8076 39.48C41.6867 39.5269 41.5762 39.6009 41.4832 39.6973C41.3902 39.7937 41.3168 39.9104 41.2677 40.0397C41.2186 40.169 41.195 40.3081 41.1983 40.4481C41.2016 40.588 41.2318 40.7256 41.2869 40.852C41.3717 41.0454 41.3995 41.2627 41.3665 41.474C41.3336 41.6854 41.2415 41.8805 41.103 42.0325C40.9644 42.1845 40.7862 42.2861 40.5926 42.3232C40.3991 42.3604 40.1997 42.3313 40.0219 42.24C39.906 42.1796 39.7798 42.1466 39.6515 42.1429C39.5231 42.1391 39.3954 42.1649 39.2768 42.2185C39.1581 42.272 39.0511 42.3522 38.9627 42.4537C38.8742 42.5553 38.8063 42.676 38.7634 42.808C38.698 43.0101 38.5767 43.1852 38.4163 43.309C38.2559 43.4328 38.0643 43.4993 37.8678 43.4993C37.6713 43.4993 37.4796 43.4328 37.3192 43.309C37.1588 43.1852 37.0376 43.0101 36.9722 42.808C36.9292 42.676 36.8613 42.5553 36.7729 42.4537C36.6844 42.3522 36.5774 42.272 36.4588 42.2185C36.3401 42.1649 36.2124 42.1391 36.0841 42.1429C35.9557 42.1466 35.8295 42.1796 35.7136 42.24C35.5358 42.3313 35.3365 42.3604 35.1429 42.3232C34.9494 42.2861 34.7711 42.1845 34.6326 42.0325C34.494 41.8805 34.4019 41.6854 34.369 41.474C34.3361 41.2627 34.3639 41.0454 34.4486 40.852C34.5038 40.7257 34.534 40.5881 34.5374 40.4482C34.5408 40.3084 34.5172 40.1693 34.4682 40.04C34.4192 39.9107 34.3459 39.794 34.253 39.6975C34.1601 39.6011 34.0497 39.527 33.9289 39.48C33.7433 39.4081 33.5827 39.2753 33.4692 39.0998C33.3556 38.9243 33.2946 38.7148 33.2946 38.5C33.2946 38.2852 33.3556 38.0756 33.4692 37.9002C33.5827 37.7247 33.7433 37.5919 33.9289 37.52C34.0495 37.473 34.1599 37.3989 34.2527 37.3025C34.3455 37.2061 34.4188 37.0896 34.4678 36.9604C34.5167 36.8312 34.5403 36.6922 34.537 36.5525C34.5337 36.4127 34.5036 36.2752 34.4486 36.149C34.3636 35.9555 34.3355 35.7381 34.3683 35.5265C34.4011 35.3149 34.4931 35.1197 34.6317 34.9674C34.7704 34.8152 34.9488 34.7136 35.1425 34.6764C35.3362 34.6393 35.5357 34.6685 35.7136 34.76C35.8295 34.8203 35.9557 34.8534 36.0841 34.8571C36.2124 34.8608 36.3401 34.835 36.4588 34.7815C36.5774 34.7279 36.6844 34.6478 36.7729 34.5462C36.8613 34.4447 36.9292 34.324 36.9722 34.192C37.0376 33.9898 37.1588 33.8148 37.3192 33.6909C37.4796 33.5671 37.6713 33.5006 37.8678 33.5006C38.0643 33.5006 38.2559 33.5671 38.4163 33.6909C38.5767 33.8148 38.698 33.9898 38.7634 34.192C38.8063 34.324 38.8742 34.4447 38.9627 34.5462C39.0511 34.6478 39.1581 34.7279 39.2768 34.7815C39.3954 34.835 39.5231 34.8608 39.6515 34.8571C39.7798 34.8534 39.906 34.8203 40.0219 34.76C40.1997 34.6687 40.3991 34.6396 40.5926 34.6767C40.7862 34.7139 40.9644 34.8154 41.103 34.9675C41.2415 35.1195 41.3336 35.3146 41.3665 35.5259C41.3995 35.7373 41.3717 35.9545 41.2869 36.148C41.2318 36.2744 41.2016 36.412 41.1983 36.5519C41.195 36.6918 41.2186 36.8309 41.2677 36.9602C41.3168 37.0896 41.3902 37.2062 41.4832 37.3026C41.5762 37.399 41.6867 37.4731 41.8076 37.52C41.9927 37.5923 42.1528 37.7253 42.266 37.9007C42.3792 38.0762 42.44 38.2854 42.44 38.5C42.44 38.7145 42.3792 38.9238 42.266 39.0992C42.1528 39.2746 41.9927 39.4076 41.8076 39.48ZM46.9529 2.625C46.9006 2.705 46.8548 2.79 46.8071 2.874C46.7094 3.04473 46.6213 3.22172 46.5431 3.404C46.5019 3.504 46.4634 3.596 46.4276 3.694C46.3595 3.88997 46.3026 4.09036 46.2571 4.294C46.236 4.387 46.2094 4.477 46.1929 4.572C46.1377 4.87771 46.1088 5.1884 46.1068 5.5V47.5C46.1068 48.2956 45.817 49.0587 45.3013 49.6213C44.7856 50.1839 44.0861 50.5 43.3568 50.5C43.0512 50.4938 42.7488 50.4316 42.4621 50.316V43.36C42.7435 43.0367 42.9554 42.6491 43.0822 42.2253C43.2091 41.8015 43.2478 41.3521 43.1954 40.91C43.5317 40.6244 43.8038 40.2589 43.991 39.8413C44.1781 39.4236 44.2754 38.9649 44.2754 38.5C44.2754 38.0351 44.1781 37.5763 43.991 37.1587C43.8038 36.741 43.5317 36.3755 43.1954 36.09C43.2489 35.6291 43.2052 35.1611 43.0676 34.7215C42.93 34.2819 42.7022 33.8824 42.4016 33.5534C42.101 33.2245 41.7354 32.9748 41.3328 32.8234C40.9303 32.6721 40.5014 32.623 40.0788 32.68C39.8177 32.3127 39.4831 32.0154 39.1005 31.8108C38.7179 31.6063 38.2975 31.5 37.8714 31.5C37.4454 31.5 37.025 31.6063 36.6424 31.8108C36.2598 32.0154 35.9252 32.3127 35.6641 32.68C35.2416 32.6232 34.8127 32.6724 34.4102 32.8239C34.0078 32.9753 33.6423 33.225 33.3417 33.5539C33.0411 33.8828 32.8133 34.2822 32.6756 34.7217C32.538 35.1612 32.4941 35.6292 32.5474 36.09C32.2112 36.3755 31.9391 36.741 31.7519 37.1587C31.5648 37.5763 31.4675 38.0351 31.4675 38.5C31.4675 38.9649 31.5648 39.4236 31.7519 39.8413C31.9391 40.2589 32.2112 40.6244 32.5474 40.91C32.494 41.3584 32.5339 41.8142 32.6644 42.2434C32.7949 42.6727 33.0125 43.0642 33.3009 43.389V44.5H9.4401V5.5C9.4401 4.70435 9.72984 3.94129 10.2456 3.37868C10.7613 2.81607 11.4608 2.5 12.1901 2.5H47.0234C46.9978 2.539 46.9785 2.584 46.9529 2.625ZM53.4401 6.5H47.9401V5.5C47.9401 4.70435 48.2298 3.94129 48.7456 3.37868C49.2613 2.81607 49.9608 2.5 50.6901 2.5C51.4194 2.5 52.1189 2.81607 52.6346 3.37868C53.1504 3.94129 53.4401 4.70435 53.4401 5.5V6.5Z" fill="#4F75D2"/>
<path d="M34.1901 8.5H30.5234V10.5H34.1901V8.5Z" fill="#4F75D2"/>
<path d="M28.6888 8.5H21.3555V10.5H28.6888V8.5Z" fill="#4F75D2"/>
<path d="M36.9388 13.5H18.6055V15.5H36.9388V13.5Z" fill="#4F75D2"/>
<path d="M18.6068 19.5H14.0234V21.5H18.6068V19.5Z" fill="#4F75D2"/>
<path d="M24.1068 24.5H14.0234V26.5H24.1068V24.5Z" fill="#4F75D2"/>
<path d="M41.5247 19.5H20.4414V21.5H41.5247V19.5Z" fill="#4F75D2"/>
<path d="M41.5247 24.5H25.9414V26.5H41.5247V24.5Z" fill="#4F75D2"/>
<path d="M32.3568 29.5H14.0234V31.5H32.3568V29.5Z" fill="#4F75D2"/>
<path d="M29.6068 34.5H14.0234V36.5H29.6068V34.5Z" fill="#4F75D2"/>
</g>
<defs>
<clipPath id="clip0">
<rect width="55" height="58" fill="white" transform="translate(0.273438 0.5)"/>
</clipPath>
</defs>
</svg>
