<svg width="58" height="61" viewBox="0 0 58 61" fill="none" xmlns="http://www.w3.org/2000/svg">
<g clip-path="url(#clip0)">
<path d="M57.4835 46.6487H49.2321V43.8202H47.3984V46.6487H33.6461V37.2202H35.4798V35.3345H33.6461V32.7388C40.0098 30.7211 44.648 24.6179 44.648 17.4202C44.648 8.58183 37.6563 1.3916 29.062 1.3916C20.4678 1.3916 13.4761 8.58183 13.4761 17.4202C13.4761 24.6179 18.1143 30.7211 24.4779 32.7388V35.3345H22.6443V37.2202H24.4779V46.6487H10.7256V43.8202H8.892V46.6487H0.640625V48.5345H8.892V55.1345H0.640625V57.0202H8.892V59.8487H10.7256V57.0202H47.3984V59.8487H49.2321V57.0202H57.4835V55.1345H49.2321V48.5345H57.4835V46.6487ZM15.3097 17.4202C15.3097 9.6218 21.479 3.27732 29.062 3.27732C36.6451 3.27732 42.8143 9.6218 42.8143 17.4202C42.8143 25.2185 36.6451 31.563 29.062 31.563C21.479 31.563 15.3097 25.2185 15.3097 17.4202ZM26.3116 33.1838C27.2064 33.3479 28.1223 33.4487 29.062 33.4487C30.0018 33.4487 30.9177 33.3479 31.8125 33.1838V35.3345H26.3116V33.1838ZM26.3116 37.2202H31.8125V46.6487H26.3116V37.2202ZM47.3984 55.1345H10.7256V48.5345H47.3984V55.1345Z" fill="#4F75D2"/>
<path d="M29.0627 20.2487C30.5792 20.2487 31.8132 18.9796 31.8132 17.4201C31.8132 15.8606 30.5792 14.5916 29.0627 14.5916C27.5463 14.5916 26.3123 15.8606 26.3123 17.4201C26.3123 17.719 26.37 18.0009 26.4535 18.2715L21.2734 21.316L22.1829 22.9528L27.5674 19.7886C27.9992 20.0771 28.5108 20.2487 29.0627 20.2487ZM29.0627 16.4773C29.5679 16.4773 29.9796 16.9006 29.9796 17.4201C29.9796 17.9396 29.5679 18.363 29.0627 18.363C28.5576 18.363 28.1459 17.9396 28.1459 17.4201C28.1459 16.9006 28.5576 16.4773 29.0627 16.4773Z" fill="#4F75D2"/>
<path d="M14.3922 49.4773H12.5586V51.363H14.3922V49.4773Z" fill="#4F75D2"/>
<path d="M14.3922 52.3059H12.5586V54.1916H14.3922V52.3059Z" fill="#4F75D2"/>
<path d="M7.0602 49.4773H5.22656V51.363H7.0602V49.4773Z" fill="#4F75D2"/>
<path d="M7.0602 52.3059H5.22656V54.1916H7.0602V52.3059Z" fill="#4F75D2"/>
<path d="M52.9001 49.4773H51.0664V51.363H52.9001V49.4773Z" fill="#4F75D2"/>
<path d="M52.9001 52.3059H51.0664V54.1916H52.9001V52.3059Z" fill="#4F75D2"/>
<path d="M45.5641 49.4773H43.7305V51.363H45.5641V49.4773Z" fill="#4F75D2"/>
<path d="M45.5641 52.3059H43.7305V54.1916H45.5641V52.3059Z" fill="#4F75D2"/>
<path d="M29.9782 5.16296H28.1445V7.04868H29.9782V5.16296Z" fill="#4F75D2"/>
<path d="M23.8965 6.33449L22.3086 7.27734L23.2254 8.91037L24.8133 7.96751L23.8965 6.33449Z" fill="#4F75D2"/>
<path d="M19.1981 10.4748L18.2812 12.1078L19.8692 13.0506L20.786 11.4176L19.1981 10.4748Z" fill="#4F75D2"/>
<path d="M18.9782 16.4773H17.1445V18.363H18.9782V16.4773Z" fill="#4F75D2"/>
<path d="M19.8694 21.7902L18.2812 22.7329L19.1979 24.3661L20.786 23.4235L19.8694 21.7902Z" fill="#4F75D2"/>
<path d="M38.2528 21.7896L37.3359 23.4226L38.9239 24.3655L39.8407 22.7324L38.2528 21.7896Z" fill="#4F75D2"/>
<path d="M40.9821 16.4773H39.1484V18.363H40.9821V16.4773Z" fill="#4F75D2"/>
<path d="M38.928 10.4764L37.3398 11.4191L38.2565 13.0523L39.8446 12.1096L38.928 10.4764Z" fill="#4F75D2"/>
<path d="M34.2252 6.33285L33.3086 7.96606L34.8967 8.90873L35.8134 7.27552L34.2252 6.33285Z" fill="#4F75D2"/>
<path d="M34.5643 25.9059H23.5625V27.7916H34.5643V25.9059Z" fill="#4F75D2"/>
</g>
<defs>
<clipPath id="clip0">
<rect width="57" height="60" fill="white" transform="translate(0.527344 0.5)"/>
</clipPath>
</defs>
</svg>
