<svg width="57" height="55" viewBox="0 0 57 55" fill="none" xmlns="http://www.w3.org/2000/svg">
<path d="M51.1075 47.7808L45.2323 40.3624C47.1361 39.8038 48.7806 38.608 49.8803 36.9828C51.2639 34.6339 50.6382 31.7672 50.0329 28.9983C49.6668 27.5759 49.4478 26.1207 49.3792 24.6552C49.4475 23.1883 49.6665 21.7319 50.0329 20.3083C50.6344 17.5374 51.2639 14.6727 49.8803 12.3276C48.4475 9.89621 45.5625 8.99629 42.7722 8.12767C41.3832 7.7518 40.038 7.2344 38.7585 6.58388C37.5975 5.84422 36.5195 4.98603 35.5424 4.02353C33.4723 2.13647 31.1251 0 28.1378 0C25.1505 0 22.8033 2.13647 20.7323 4.02259C19.7556 4.98532 18.6778 5.84387 17.5171 6.58388C16.2378 7.23309 14.893 7.74919 13.5044 8.12388C10.7141 8.9925 7.82914 9.89241 6.39631 12.3238C5.01272 14.6727 5.63838 17.5393 6.24376 20.3083C6.60981 21.732 6.8285 23.1883 6.89645 24.6552C6.82814 26.122 6.60921 27.5785 6.24279 29.0021C5.64128 31.7729 5.01176 34.6377 6.39534 36.9828C7.49652 38.6086 9.14285 39.804 11.0482 40.3615L5.16817 47.7798C4.84086 48.1933 4.91678 48.789 5.33786 49.1105C5.54014 49.2649 5.79648 49.3341 6.05066 49.3028L12.9541 48.4559L14.6582 54.3125C14.7581 54.6558 15.0458 54.9149 15.4027 54.9829C15.4631 54.9942 15.5246 55 15.5861 55C15.8842 55.0002 16.1658 54.8651 16.3489 54.634L22.5147 46.8448C24.032 48.2956 26.025 49.1695 28.1378 49.3103C30.2506 49.1695 32.2437 48.2956 33.761 46.8448L39.9268 54.6311C40.1093 54.8633 40.3908 54.9995 40.6896 55C40.7511 55 40.8125 54.9942 40.873 54.9829C41.2299 54.9149 41.5176 54.6558 41.6174 54.3125L43.3216 48.4569L50.225 49.3037C50.7541 49.3689 51.2369 49.0005 51.3032 48.4808C51.3351 48.2312 51.2647 47.9794 51.1075 47.7808ZM15.9916 51.9949L14.5829 47.153C14.452 46.7039 14.0074 46.4154 13.5353 46.4731L8.12845 47.1369L12.9744 41.0186L13.5083 41.1865C14.8955 41.5614 16.239 42.0775 17.5171 42.7265C18.6782 43.4661 19.7562 44.3243 20.7333 45.2868L21.0654 45.5884L15.9916 51.9949ZM28.1378 47.4138C25.9075 47.4138 24.0315 45.7069 22.0444 43.8976C20.9634 42.8368 19.7693 41.8936 18.4827 41.0841C17.0828 40.3643 15.6092 39.7921 14.0867 39.3772C11.5348 38.5816 9.1239 37.8305 8.06569 36.0345C7.05576 34.3191 7.57714 31.9284 8.13038 29.3966C8.52853 27.8439 8.76219 26.255 8.82748 24.6552C8.76255 23.0553 8.52926 21.4665 8.13135 19.9138C7.5781 17.3828 7.05672 14.9922 8.06665 13.2759C9.12872 11.4798 11.5358 10.7288 14.0876 9.93319C15.6099 9.51808 17.083 8.94592 18.4827 8.22629C19.769 7.4167 20.9628 6.47341 22.0435 5.41276C24.0315 3.60345 25.9075 1.89655 28.1378 1.89655C30.3682 1.89655 32.2442 3.60345 34.2312 5.41276C35.3122 6.47352 36.5063 7.4167 37.793 8.22629C39.1929 8.94603 40.6665 9.5182 42.189 9.93319C44.7409 10.7288 47.1518 11.4798 48.21 13.2759C49.2199 14.9913 48.6985 17.3819 48.1453 19.9138C47.7471 21.4665 47.5135 23.0553 47.4482 24.6552C47.5131 26.255 47.7464 27.8439 48.1443 29.3966C48.6976 31.9275 49.2189 34.3181 48.209 36.0345C47.1469 37.8305 44.7399 38.5816 42.188 39.3772C40.6658 39.7923 39.1926 40.3644 37.793 41.0841C36.5067 41.8936 35.3128 42.8369 34.2322 43.8976C32.2442 45.7069 30.3682 47.4138 28.1378 47.4138ZM42.7451 46.4731C42.2731 46.4154 41.8285 46.7039 41.6976 47.153L40.284 51.9949L35.2112 45.5893L35.5433 45.2878C36.5201 44.325 37.5978 43.4665 38.7585 42.7265C40.0378 42.0773 41.3827 41.5612 42.7712 41.1865L43.3051 41.0186L48.152 47.1369L42.7451 46.4731Z" fill="#4F75D2"/>
<path d="M28.141 7.58618C18.5427 7.58618 10.7617 15.2282 10.7617 24.6551C10.7617 34.0821 18.5427 41.7241 28.141 41.7241C37.7394 41.7241 45.5203 34.0821 45.5203 24.6551C45.5092 15.2327 37.7348 7.59721 28.141 7.58618ZM28.141 39.8276C19.6092 39.8276 12.6928 33.0346 12.6928 24.6551C12.6928 16.2757 19.6092 9.48273 28.141 9.48273C36.6728 9.48273 43.5893 16.2757 43.5893 24.6551C43.5792 33.0306 36.6687 39.8176 28.141 39.8276Z" fill="#4F75D2"/>
<path d="M39.2809 20.6943C38.9176 20.2041 38.3378 19.9141 37.7206 19.9138H31.8097L29.9753 14.3882C29.6423 13.3931 28.551 12.8517 27.5378 13.1787C26.955 13.3668 26.4978 13.8158 26.3063 14.3882L24.4766 19.9138H18.5609C17.4944 19.9134 16.6294 20.7619 16.6289 21.8094C16.6285 22.4163 16.924 22.9866 17.4235 23.3437L22.2086 26.7575L20.3809 32.2831C20.0512 33.2793 20.6062 34.3493 21.6204 34.673C22.2085 34.8608 22.8525 34.7605 23.3528 34.4035L28.1408 30.9906L32.9268 34.4044C33.601 34.8963 34.5236 34.8963 35.1977 34.4044C35.8819 33.9268 36.1667 33.0653 35.8987 32.2841L34.071 26.7575L38.8561 23.3437C39.7184 22.7274 39.9086 21.5411 39.2809 20.6943ZM32.3678 25.6291C32.0291 25.8708 31.8876 26.2993 32.0173 26.6902L34.0623 32.8711L28.7085 29.0514C28.3702 28.8102 27.9123 28.8102 27.574 29.0514L22.2202 32.8711L24.2642 26.6902C24.3935 26.2995 24.252 25.8716 23.9137 25.63L18.5609 21.8104H25.1776C25.5959 21.8104 25.9665 21.5458 26.0958 21.1551L28.1408 14.9743L30.1857 21.1542C30.315 21.5449 30.6856 21.8094 31.1039 21.8094L37.7206 21.8104L32.3678 25.6291Z" fill="#4F75D2"/>
</svg>
