<svg width="17" height="18" viewBox="0 0 17 18" fill="none" xmlns="http://www.w3.org/2000/svg">
<path d="M8.65312 0.666667C4.05312 0.666667 0.328125 4.4 0.328125 9C0.328125 13.6 4.05312 17.3333 8.65312 17.3333C13.2615 17.3333 16.9948 13.6 16.9948 9C16.9948 4.4 13.2615 0.666667 8.65312 0.666667ZM8.66146 15.6667C4.97813 15.6667 1.99479 12.6833 1.99479 9C1.99479 5.31667 4.97813 2.33333 8.66146 2.33333C12.3448 2.33333 15.3281 5.31667 15.3281 9C15.3281 12.6833 12.3448 15.6667 8.66146 15.6667ZM8.47813 4.83333H8.42813C8.09479 4.83333 7.82813 5.1 7.82813 5.43333V9.36667C7.82813 9.65833 7.97813 9.93333 8.23646 10.0833L11.6948 12.1583C11.9781 12.325 12.3448 12.2417 12.5115 11.9583C12.6865 11.675 12.5948 11.3 12.3031 11.1333L9.07812 9.21667V5.43333C9.07812 5.1 8.81146 4.83333 8.47813 4.83333Z" fill="white"/>
</svg>
