<svg width="37" height="38" viewBox="0 0 37 38" fill="none" xmlns="http://www.w3.org/2000/svg">
<path d="M34.5226 0.806885H2.35239C1.29499 0.806885 0.4375 1.68819 0.4375 2.77497V35.8388C0.4375 36.9256 1.29499 37.8069 2.35239 37.8069H34.5226C35.5804 37.8069 36.4375 36.9256 36.4375 35.8388V2.77497C36.4375 1.68819 35.5804 0.806885 34.5226 0.806885ZM26.0703 9.21612L23.3029 9.2173C21.1337 9.2173 20.7135 10.2769 20.7135 11.8321V15.2609H25.888L25.8864 20.6314H20.7135V34.4127H15.317V20.6314H10.8047V15.2609H15.317V11.3003C15.317 6.70406 18.0488 4.20104 22.0375 4.20104L26.0703 4.20774V9.21612Z" fill="white"/>
</svg>
