<svg width="37" height="37" viewBox="0 0 37 37" fill="none" xmlns="http://www.w3.org/2000/svg">
<path d="M31.4909 0.105225H5.48875C2.5185 0.105225 0.101562 2.52216 0.101562 5.49241V31.4946C0.101562 34.4648 2.5185 36.8818 5.48875 36.8818H31.4909C34.4612 36.8818 36.8781 34.4648 36.8781 31.4946V5.49241C36.8781 2.52216 34.4612 0.105225 31.4909 0.105225ZM18.5617 28.1186C13.2146 28.1186 8.86472 23.7687 8.86472 18.4217C8.86472 13.0746 13.2146 8.72473 18.5617 8.72473C23.9087 8.72473 28.2586 13.0746 28.2586 18.4217C28.2586 23.7687 23.9087 28.1186 18.5617 28.1186ZM29.336 10.8796C27.5538 10.8796 26.1037 9.42955 26.1037 7.64729C26.1037 5.86503 27.5538 4.41498 29.336 4.41498C31.1183 4.41498 32.5684 5.86503 32.5684 7.64729C32.5684 9.42955 31.1183 10.8796 29.336 10.8796Z" fill="white"/>
<path d="M29.3313 6.56982C28.7368 6.56982 28.2539 7.05271 28.2539 7.64726C28.2539 8.24182 28.7368 8.7247 29.3313 8.7247C29.9259 8.7247 30.4088 8.24182 30.4088 7.64726C30.4088 7.05271 29.9259 6.56982 29.3313 6.56982Z" fill="white"/>
<path d="M18.5696 11.8459C14.9443 11.8459 11.9941 14.7961 11.9941 18.4215C11.9941 22.0468 14.9443 24.997 18.5696 24.997C22.195 24.997 25.1452 22.0468 25.1452 18.4215C25.1452 14.7961 22.195 11.8459 18.5696 11.8459Z" fill="white"/>
</svg>
