<svg width="16" height="12" viewBox="0 0 16 12" fill="none" xmlns="http://www.w3.org/2000/svg">
<path d="M1.00511 0.967354C3.0638 2.71084 6.67616 5.77816 7.73788 6.73456C7.88041 6.86364 8.03328 6.92927 8.19198 6.92927C8.35036 6.92927 8.50297 6.86426 8.64518 6.73579C9.7078 5.77846 13.3202 2.71084 15.3789 0.967354C15.5071 0.859014 15.5266 0.668584 15.4228 0.536133C15.1829 0.230069 14.8253 0.0545807 14.442 0.0545807H1.94199C1.5587 0.0545807 1.20102 0.230069 0.961162 0.536163C0.857392 0.668585 0.876933 0.859014 1.00511 0.967354Z" fill="#4F75D2"/>
<path d="M15.5118 1.91217C15.401 1.86061 15.2707 1.8786 15.1786 1.95735C13.8303 3.10022 12.0539 4.61024 10.7141 5.76257C10.6437 5.82301 10.604 5.91181 10.6055 6.00489C10.607 6.09767 10.6501 6.18524 10.7227 6.24322C11.9675 7.24022 13.8434 8.61169 15.1981 9.58643C15.2521 9.62548 15.3162 9.64532 15.3806 9.64532C15.4294 9.64532 15.4782 9.63404 15.5231 9.61083C15.6275 9.55743 15.6931 9.44999 15.6931 9.33281V2.19568C15.6931 2.07392 15.6223 1.96315 15.5118 1.91217Z" fill="#4F75D2"/>
<path d="M1.18641 9.58644C2.54139 8.61171 4.41762 7.24026 5.66212 6.24323C5.73475 6.18525 5.77778 6.09765 5.77931 6.0049C5.78083 5.91182 5.74116 5.82302 5.67067 5.76258C4.33093 4.61025 2.55419 3.10023 1.20595 1.95736C1.11316 1.87861 0.982559 1.86124 0.872695 1.91218C0.762217 1.96316 0.691406 2.07393 0.691406 2.19569V9.33285C0.691406 9.45004 0.757031 9.55747 0.861387 9.61088C0.90624 9.63408 0.955078 9.64536 1.00392 9.64536C1.06831 9.64536 1.13238 9.62552 1.18641 9.58644Z" fill="#4F75D2"/>
<path d="M15.3097 10.4367C14.0014 9.50069 11.5914 7.75571 10.1528 6.58808C10.0356 6.49257 9.86593 6.49562 9.75059 6.59511C9.46832 6.84138 9.2321 7.04892 9.06455 7.19965C8.55001 7.66413 7.83589 7.66413 7.32015 7.19904C7.15322 7.0486 6.91703 6.84044 6.63472 6.59508C6.52029 6.49497 6.35031 6.49193 6.2328 6.58805C4.79907 7.75169 2.38635 9.49882 1.07593 10.4366C1.00298 10.4891 0.955991 10.57 0.94685 10.6594C0.938003 10.7488 0.967592 10.8376 1.02894 10.9035C1.26548 11.1584 1.59874 11.3046 1.94268 11.3046H14.4427C14.7866 11.3046 15.1196 11.1584 15.3567 10.9036C15.4177 10.838 15.4476 10.7492 15.4388 10.6597C15.4296 10.5704 15.3826 10.4892 15.3097 10.4367Z" fill="#4F75D2"/>
</svg>
