<svg width="38" height="39" viewBox="0 0 38 39" fill="none" xmlns="http://www.w3.org/2000/svg">
<path d="M35.8451 0.943359H2.69214C1.60244 0.943359 0.71875 1.82665 0.71875 2.91675V36.0697C0.71875 37.1598 1.60244 38.0431 2.69214 38.0431H35.8451C36.9352 38.0431 37.8185 37.1598 37.8185 36.0697V2.91675C37.8185 1.82665 36.9352 0.943359 35.8451 0.943359ZM19.3002 4.40311C23.5229 4.41377 26.9132 7.86878 26.8922 12.1396C26.8697 16.3113 23.4242 19.693 19.2083 19.6787C15.0341 19.6645 11.6115 16.2044 11.6352 12.0236C11.66 7.79695 15.085 4.39048 19.3002 4.40311ZM27.8541 22.6791C26.9203 23.6386 25.7962 24.3316 24.5475 24.8167C23.367 25.2729 22.0736 25.5042 20.7933 25.6573C20.9867 25.8681 21.0778 25.9703 21.1978 26.0923C22.936 27.8387 24.6813 29.5781 26.4135 31.3296C27.0031 31.926 27.1279 32.666 26.8023 33.3603C26.4467 34.12 25.6514 34.6185 24.8707 34.5648C24.3766 34.5301 23.9914 34.2842 23.6496 33.9404C22.3377 32.6203 21.0009 31.3249 19.7166 29.9814C19.3428 29.5899 19.1629 29.6629 18.8321 30.0035C17.5127 31.362 16.1728 32.6996 14.8242 34.0293C14.2183 34.6268 13.498 34.7338 12.7943 34.3931C12.0476 34.0312 11.5732 33.2691 11.6099 32.5022C11.6352 31.9844 11.8901 31.589 12.2457 31.2337C13.9649 29.5165 15.6802 27.7949 17.3963 26.0745C17.5103 25.9608 17.6161 25.8389 17.7815 25.6621C15.4414 25.4178 13.3315 24.8423 11.5258 23.4294C11.3021 23.2537 11.0704 23.084 10.8651 22.8875C10.075 22.1281 9.99567 21.2594 10.6212 20.3631C11.1556 19.5966 12.0547 19.3906 12.9881 19.8307C13.1693 19.9156 13.3414 20.0225 13.5063 20.1366C16.8721 22.4494 21.4966 22.5137 24.8754 20.2416C25.2097 19.9862 25.5677 19.7747 25.9829 19.6697C26.79 19.4625 27.5407 19.7581 27.9741 20.4638C28.4702 21.2677 28.4635 22.0539 27.8541 22.6791Z" fill="white"/>
</svg>
