<svg width="18" height="18" viewBox="0 0 18 18" fill="none" xmlns="http://www.w3.org/2000/svg">
<path d="M16.1937 12.0928L13.79 11.8183C13.2127 11.7521 12.6449 11.9508 12.238 12.3578L10.4967 14.099C7.81852 12.7363 5.62299 10.5502 4.26025 7.8626L6.01099 6.11185C6.41792 5.70492 6.61665 5.13711 6.55041 4.55984L6.27597 2.17504C6.16241 1.21923 5.35801 0.5 4.39273 0.5H2.75555C1.68618 0.5 0.796607 1.38957 0.862851 2.45894C1.36442 10.5408 7.82798 16.9949 15.9003 17.4964C16.9697 17.5627 17.8593 16.6731 17.8593 15.6037V13.9665C17.8687 13.0107 17.1495 12.2063 16.1937 12.0928Z" fill="white"/>
</svg>
