<svg width="15" height="15" viewBox="0 0 15 15" fill="none" xmlns="http://www.w3.org/2000/svg">
<path d="M13.4881 10.2669L11.4772 10.0373C10.9943 9.98188 10.5193 10.1481 10.1789 10.4885L8.72223 11.9452C6.48181 10.8052 4.64515 8.97646 3.50515 6.72813L4.96973 5.26355C5.31015 4.92313 5.4764 4.44813 5.42098 3.96521L5.1914 1.97021C5.0964 1.17063 4.42348 0.568962 3.61598 0.568962H2.2464C1.35181 0.568962 0.607648 1.31313 0.663064 2.20771C1.08265 8.96855 6.48973 14.3677 13.2426 14.7873C14.1372 14.8427 14.8814 14.0985 14.8814 13.204V11.8344C14.8893 11.0348 14.2876 10.3619 13.4881 10.2669Z" fill="#4F75D2"/>
</svg>
