<svg width="16" height="15" viewBox="0 0 16 15" fill="none" xmlns="http://www.w3.org/2000/svg">
<path d="M4.01305 8.24106L2.29071 1.35197H0.835938V0.44783H2.99668L4.89012 8.02212L4.01305 8.24106Z" fill="white"/>
<path d="M3.09766 3.16024V2.2561H15.3398L14.8126 8.58325H4.45334V7.67963" fill="white"/>
<path d="M4.45254 11.2957C3.45574 11.2957 2.64453 10.4845 2.64453 9.48766C2.64453 8.49087 3.45574 7.67939 4.45254 7.67939V8.58313C3.95414 8.58313 3.5488 8.98874 3.5488 9.4874C3.5488 9.98606 3.95414 10.3914 4.45254 10.3914V11.2957Z" fill="white"/>
<path d="M14.3953 11.2952H4.45181C4.20238 11.2952 4 11.0928 4 10.8431C4 10.5934 4.20238 10.3913 4.45181 10.3913H14.3953C14.6447 10.3913 14.8473 10.5934 14.8473 10.8431C14.8473 11.0928 14.6447 11.2952 14.3953 11.2952Z" fill="white"/>
<path d="M5.35614 14.9113C4.60828 14.9113 4 14.303 4 13.5552C4 12.8073 4.60828 12.199 5.35614 12.199C6.104 12.199 6.71201 12.8073 6.71201 13.5552C6.71201 14.303 6.104 14.9113 5.35614 14.9113ZM5.35614 13.1033C5.10694 13.1033 4.90374 13.306 4.90374 13.5552C4.90374 13.8044 5.10668 14.0075 5.35614 14.0075C5.60508 14.0075 5.80801 13.8044 5.80801 13.5552C5.80801 13.306 5.60534 13.1033 5.35614 13.1033Z" fill="white"/>
<path d="M12.1332 14.9113C11.3854 14.9113 10.7773 14.303 10.7773 13.5552C10.7773 12.8073 11.3854 12.199 12.1332 12.199C12.8811 12.199 13.4894 12.8073 13.4894 13.5552C13.4894 14.303 12.8811 14.9113 12.1332 14.9113ZM12.1332 13.1033C11.8843 13.1033 11.6811 13.306 11.6811 13.5552C11.6811 13.8044 11.884 14.0075 12.1332 14.0075C12.3824 14.0075 12.5854 13.8044 12.5854 13.5552C12.5854 13.306 12.3827 13.1033 12.1332 13.1033Z" fill="white"/>
</svg>
