<svg width="38" height="38" viewBox="0 0 38 38" fill="none" xmlns="http://www.w3.org/2000/svg">
<path d="M35.1882 0.806885H2.12434C1.03716 0.806885 0.15625 1.68819 0.15625 2.77497V35.8388C0.15625 36.9256 1.03716 37.8069 2.12434 37.8069H35.1882C36.2753 37.8069 37.1562 36.9256 37.1562 35.8388V2.77497C37.1562 1.68819 36.2753 0.806885 35.1882 0.806885ZM29.626 21.6462C30.6344 22.6302 31.7007 23.5568 32.6064 24.6443C33.0071 25.1245 33.385 25.6205 33.6727 26.179C34.0825 26.9757 33.7125 27.8507 32.9985 27.8976L28.5679 27.8964C27.4241 27.9905 26.5132 27.5299 25.7449 26.7478C25.1328 26.1239 24.5637 25.4579 23.9736 24.8136C23.7331 24.5487 23.4781 24.2995 23.1765 24.1027C22.5727 23.7107 22.048 23.8303 21.7013 24.4605C21.3486 25.1021 21.2671 25.8138 21.2348 26.529C21.1856 27.574 20.8707 27.8468 19.8225 27.8952C17.5829 28.0007 15.4569 27.6606 13.4822 26.5321C11.7388 25.5363 10.3907 24.1295 9.21613 22.5385C6.92686 19.4356 5.17369 16.0296 3.59922 12.526C3.24457 11.7368 3.50396 11.3145 4.37346 11.2984C5.8204 11.2696 7.26694 11.2736 8.71191 11.2968C9.30076 11.3058 9.69005 11.6428 9.91559 12.1978C10.6969 14.1206 11.6558 15.9501 12.8563 17.6466C13.1763 18.0981 13.503 18.5488 13.9675 18.868C14.4808 19.2207 14.872 19.1046 15.1141 18.5319C15.2688 18.1666 15.3357 17.7785 15.3688 17.388C15.4837 16.0513 15.4975 14.7146 15.2991 13.3829C15.1751 12.5501 14.7059 12.012 13.8754 11.8545C13.4526 11.7742 13.5144 11.6176 13.7199 11.3763C14.0765 10.9583 14.4127 10.7001 15.0802 10.7001L20.0874 10.6993C20.877 10.8536 21.0526 11.2078 21.16 12.0025L21.1648 17.5655C21.1565 17.8733 21.3187 18.785 21.8713 18.9865C22.3133 19.1325 22.6066 18.7779 22.8711 18.4968C24.0708 17.2235 24.9258 15.7195 25.6922 14.1635C26.0295 13.4774 26.3219 12.7665 26.6053 12.0553C26.8151 11.529 27.1434 11.27 27.737 11.2795L32.5572 11.2846C32.6989 11.2846 32.8442 11.2862 32.9847 11.3094C33.7963 11.4491 34.0187 11.7986 33.768 12.5914C33.3728 13.8364 32.6033 14.874 31.8507 15.9139C31.0465 17.0259 30.188 18.1012 29.3898 19.2187C28.6585 20.2437 28.7175 20.7585 29.626 21.6462Z" fill="white"/>
</svg>
