<svg width="39" height="38" viewBox="0 0 39 38" fill="none" xmlns="http://www.w3.org/2000/svg">
<path d="M16.8674 28.2861C16.5347 28.7435 16.2206 28.9682 15.9202 28.9682C15.7201 28.9682 15.6061 28.8533 15.5701 28.6274C15.556 28.5797 15.556 28.4022 15.556 28.0609V22.1362H14.0586V28.4994C14.0586 29.067 14.1091 29.4528 14.1912 29.6964C14.3412 30.1038 14.6735 30.2947 15.1561 30.2947C15.7063 30.2947 16.2719 29.9708 16.8674 29.306V30.1837H18.3659V22.1362H16.8674V28.2861Z" fill="white"/>
<path d="M22.7054 22.0381C22.1556 22.0381 21.6418 22.3309 21.1571 22.9111V19.3835H19.6602V30.184H21.1571V29.4035C21.6576 30.0061 22.173 30.2942 22.7054 30.2942C23.3013 30.2942 23.7027 29.9884 23.9016 29.3897C24.0019 29.0488 24.054 28.5123 24.054 27.768V24.5632C24.054 23.8007 24.0027 23.2685 23.9016 22.9454C23.7015 22.3432 23.3005 22.0381 22.7054 22.0381ZM22.555 27.8829C22.555 28.6099 22.3363 28.9689 21.9042 28.9689C21.6576 28.9689 21.4073 28.854 21.1567 28.6099V23.7051C21.4069 23.465 21.6568 23.3504 21.9042 23.3504C22.3363 23.3504 22.555 23.7224 22.555 24.449V27.8829Z" fill="white"/>
<path d="M8.62109 20.903H10.382V30.1833H12.048V20.903H13.8421V19.3821H8.62109V20.903Z" fill="white"/>
<path d="M18.1486 14.7004C18.6357 14.7004 18.8702 14.3241 18.8702 13.5719V10.151C18.8702 9.39841 18.6357 9.02368 18.1486 9.02368C17.6607 9.02368 17.4258 9.3988 17.4258 10.151V13.5719C17.4258 14.3245 17.6607 14.7004 18.1486 14.7004Z" fill="white"/>
<path d="M27.4761 22.0378C26.7104 22.0378 26.1162 22.3114 25.682 22.8629C25.3639 23.2695 25.2188 23.8993 25.2188 24.7593V27.5772C25.2188 28.4325 25.3821 29.067 25.7002 29.4705C26.1324 30.02 26.7299 30.2947 27.5121 30.2947C28.2943 30.2947 28.908 30.0066 29.3231 29.4221C29.5047 29.1647 29.6227 28.8718 29.6728 28.5487C29.6866 28.4026 29.7048 28.0791 29.7048 27.6087V27.3958H28.1775C28.1775 27.9807 28.1573 28.3042 28.1435 28.3841C28.0582 28.7734 27.8436 28.9686 27.4749 28.9686C26.9611 28.9686 26.7092 28.5971 26.7092 27.852V26.4251H29.7048V24.7593C29.7048 23.8985 29.5548 23.2695 29.2415 22.8629C28.8231 22.3114 28.2272 22.0378 27.4761 22.0378ZM28.2086 25.2112H26.7113V24.4661C26.7113 23.7213 26.9623 23.3498 27.4624 23.3498C27.9588 23.3498 28.2086 23.7217 28.2086 24.4661V25.2112Z" fill="white"/>
<path d="M36.1389 0.806885H2.18143C1.06528 0.806885 0.160156 1.68819 0.160156 2.77497V35.8388C0.160156 36.9256 1.06528 37.8069 2.18143 37.8069H36.1389C37.2554 37.8069 38.1602 36.9256 38.1602 35.8388V2.77497C38.1602 1.68819 37.2554 0.806885 36.1389 0.806885ZM21.6306 7.79516H23.1392V13.7829C23.1392 14.1281 23.1392 14.3076 23.1582 14.356C23.1914 14.5839 23.3098 14.7004 23.5128 14.7004C23.8152 14.7004 24.1325 14.4721 24.468 14.0108V7.79516H25.982V15.9277H24.468V15.0409C23.8665 15.7132 23.2916 16.0399 22.7398 16.0399C22.2519 16.0399 21.9164 15.8474 21.7656 15.4353C21.6819 15.1889 21.6306 14.8004 21.6306 14.2261V7.79516ZM15.9144 10.447C15.9144 9.57785 16.066 8.94177 16.3878 8.53123C16.807 7.97465 17.3956 7.69676 18.1503 7.69676C18.9075 7.69676 19.4973 7.97465 19.9157 8.53123C20.233 8.94177 20.3846 9.57785 20.3846 10.447V13.2944C20.3846 14.1588 20.233 14.8004 19.9157 15.207C19.4973 15.762 18.9075 16.0399 18.1503 16.0399C17.3956 16.0399 16.807 15.762 16.3878 15.207C16.066 14.8004 15.9144 14.1588 15.9144 13.2944V10.447ZM11.867 5.01426L13.0579 9.29996L14.2028 5.01426H15.8998L13.881 11.5078V15.9277H12.2033V11.5078C12.0513 10.7252 11.7146 9.57785 11.1769 8.05534C10.8228 7.04257 10.4549 6.02664 10.1012 5.01465L11.867 5.01426ZM31.1176 30.8942C30.814 32.1774 29.7359 33.1236 28.439 33.2649C25.3659 33.5995 22.2563 33.6011 19.1593 33.5995C16.0619 33.6011 12.9516 33.5995 9.87926 33.2649C8.5816 33.1236 7.50426 32.177 7.20067 30.8942C6.76892 29.0666 6.76892 27.0726 6.76892 25.1907C6.76892 23.3092 6.77458 21.3135 7.20633 19.4864C7.50952 18.2036 8.58726 17.2565 9.88452 17.1156C12.9569 16.7814 16.0676 16.7799 19.1642 16.7814C22.2604 16.7799 25.3711 16.7814 28.4439 17.1156C29.7411 17.2565 30.8197 18.2036 31.1229 19.4864C31.5542 21.3139 31.5518 23.3092 31.5518 25.1907C31.5514 27.0726 31.549 29.0666 31.1176 30.8942Z" fill="white"/>
</svg>
